<!--<svg t="1569350135473" class="icon" viewBox="0 0 1024 1024" version="1.1" xmlns="http://www.w3.org/2000/svg" p-id="7954" width="28" height="28"><path d="M512 512m-48 0a48 48 0 1 0 96 0 48 48 0 1 0-96 0Z" p-id="7955"></path><path d="M712 512m-48 0a48 48 0 1 0 96 0 48 48 0 1 0-96 0Z" p-id="7956"></path><path d="M312 512m-48 0a48 48 0 1 0 96 0 48 48 0 1 0-96 0Z" p-id="7957"></path><path d="M925.2 338.4c-22.6-53.7-55-101.9-96.3-143.3-41.3-41.3-89.5-73.8-143.3-96.3C630.6 75.7 572.2 64 512 64h-2c-60.6 0.3-119.3 12.3-174.5 35.9-53.3 22.8-101.1 55.2-142 96.5-40.9 41.3-73 89.3-95.2 142.8-23 55.4-34.6 114.3-34.3 174.9 0.3 69.4 16.9 138.3 48 199.9v152c0 25.4 20.6 46 46 46h152.1c61.6 31.1 130.5 47.7 199.9 48h2.1c59.9 0 118-11.6 172.7-34.3 53.5-22.3 101.6-54.3 142.8-95.2 41.3-40.9 73.8-88.7 96.5-142 23.6-55.2 35.6-113.9 35.9-174.5 0.3-60.9-11.5-120-34.8-175.6z m-151.1 438C704 845.8 611 884 512 884h-1.7c-60.3-0.3-120.2-15.3-173.1-43.5l-8.4-4.5H188V695.2l-4.5-8.4C155.3 633.9 140.3 574 140 513.7c-0.4-99.7 37.7-193.3 107.6-263.8 69.8-70.5 163.1-109.5 262.8-109.9h1.7c50 0 98.5 9.7 144.2 28.9 44.6 18.7 84.6 45.6 119 80 34.3 34.3 61.3 74.4 80 119 19.4 46.2 29.1 95.2 28.9 145.8-0.6 99.6-39.7 192.9-110.1 262.7z" p-id="7958"></path></svg>-->
<svg t="1569936044638" class="icon" viewBox="0 0 1024 1024" version="1.1" xmlns="http://www.w3.org/2000/svg" p-id="8285" width="32" height="32"><path d="M924.3 338.4c-22.5-53.7-54.9-101.9-96.1-143.3-41.2-41.3-89.3-73.8-143-96.3C630.3 75.7 572.1 64 512 64h-2c-60.5 0.3-119 12.3-174.1 35.9-53.2 22.8-100.9 55.2-141.7 96.5-40.8 41.3-72.8 89.3-95 142.8C76.3 394.6 64.7 453.5 65 514.1c0.3 69.4 16.9 138.3 47.9 199.9v152c0 25.4 20.6 46 45.9 46h151.8c61.5 31.1 130.2 47.7 199.5 48h2.1c59.8 0 117.7-11.6 172.3-34.3 53.4-22.3 101.4-54.3 142.5-95.2 41.2-40.9 73.6-88.7 96.3-142 23.5-55.2 35.5-113.9 35.8-174.5 0.2-60.9-11.6-120-34.8-175.6zM312.4 560c-26.4 0-47.9-21.5-47.9-48s21.5-48 47.9-48 47.9 21.5 47.9 48-21.4 48-47.9 48z m199.6 0c-26.4 0-47.9-21.5-47.9-48s21.5-48 47.9-48 47.9 21.5 47.9 48-21.5 48-47.9 48z m199.6 0c-26.4 0-47.9-21.5-47.9-48s21.5-48 47.9-48 47.9 21.5 47.9 48-21.5 48-47.9 48z" p-id="8286"></path></svg>