<!--<svg t="1566047895565" class="icon" viewBox="0 0 1024 1024" version="1.1" xmlns="http://www.w3.org/2000/svg" p-id="8064" width="28" height="28"><path d="M824.2 699.9c-25.4-25.4-54.7-45.7-86.4-60.4C783.1 602.8 812 546.8 812 484c0-110.8-92.4-201.7-203.2-200-109.1 1.7-197 90.6-197 200 0 62.8 29 118.8 74.2 155.5-31.7 14.7-60.9 34.9-86.4 60.4C345 754.6 314 826.8 312 903.8c-0.1 4.5 3.5 8.2 8 8.2h56c4.3 0 7.9-3.4 8-7.7 1.9-58 25.4-112.3 66.7-153.5C493.8 707.7 551.1 684 612 684c60.9 0 118.2 23.7 161.3 66.8C814.5 792 838 846.3 840 904.3c0.1 4.3 3.7 7.7 8 7.7h56c4.5 0 8.1-3.7 8-8.2-2-77-33-149.2-87.8-203.9zM612 612c-34.2 0-66.4-13.3-90.5-37.5-24.5-24.5-37.9-57.1-37.5-91.8 0.3-32.8 13.4-64.5 36.3-88 24-24.6 56.1-38.3 90.4-38.7 33.9-0.3 66.8 12.9 91 36.6 24.8 24.3 38.4 56.8 38.4 91.4 0 34.2-13.3 66.3-37.5 90.5-24.2 24.2-56.4 37.5-90.6 37.5z" p-id="8065"></path><path d="M361.5 510.4c-0.9-8.7-1.4-17.5-1.4-26.4 0-15.9 1.5-31.4 4.3-46.5 0.7-3.6-1.2-7.3-4.5-8.8-13.6-6.1-26.1-14.5-36.9-25.1-25.8-25.2-39.7-59.3-38.7-95.4 0.9-32.1 13.8-62.6 36.3-85.6 24.7-25.3 57.9-39.1 93.2-38.7 31.9 0.3 62.7 12.6 86 34.4 7.9 7.4 14.7 15.6 20.4 24.4 2 3.1 5.9 4.4 9.3 3.2 17.6-6.1 36.2-10.4 55.3-12.4 5.6-0.6 8.8-6.6 6.3-11.6-32.5-64.3-98.9-108.7-175.7-109.9-110.9-1.7-203.3 89.2-203.3 199.9 0 62.8 28.9 118.8 74.2 155.5-31.8 14.7-61.1 35-86.5 60.4-54.8 54.7-85.8 126.9-87.8 204-0.1 4.5 3.5 8.2 8 8.2h56.1c4.3 0 7.9-3.4 8-7.7 1.9-58 25.4-112.3 66.7-153.5 29.4-29.4 65.4-49.8 104.7-59.7 3.9-1 6.5-4.7 6-8.7z" p-id="8066"></path></svg>-->
<svg t="1569936770483" class="icon" viewBox="0 0 1024 1024" version="1.1" xmlns="http://www.w3.org/2000/svg" p-id="5873" width="32" height="32"><path d="M493.007 838.074c-23.674-6.4-38.511-10.105-44.8-12.8-8.533-2.133-19.2 0-25.6 6.4l-10.667 10.667c-61.867 61.867-162.133 68.267-226.133 12.8-72.533-61.867-74.667-172.8-8.533-238.933l162.133-162.133c21.333-21.333 46.933-34.133 72.533-42.667 34.133-8.533 70.4-6.4 102.4 6.4 19.2 8.533 38.4 19.2 55.467 36.267 8.533 8.533 14.933 17.067 21.333 27.733 8.533 14.933 27.733 17.067 38.4 4.267l59.733-59.733c8.533-8.533 8.533-21.333 2.133-32-8.533-12.8-19.2-23.467-29.867-34.133-14.933-14.933-32-29.867-51.2-40.533-29.867-19.2-64-32-100.267-38.4-66.133-12.8-138.667-2.133-198.4 29.867-23.467 12.8-46.933 29.867-66.133 49.067L89.806 515.943c-113.067 113.067-121.6 296.533-12.8 411.733 113.067 123.733 305.067 125.867 422.4 8.533l53.333-53.333c14.933-10.667 4.267-36.267-14.933-38.4l-44.8-6.4zM930.341 78.607c-117.333-108.8-300.8-100.267-411.733 12.8l-49.067 46.933c-14.933 14.933-4.267 40.533 14.933 42.667 29.867 2.133 59.733 8.533 89.6 17.067 8.533 2.133 19.2 0 25.6-6.4l10.667-10.667c61.867-61.867 162.133-68.267 226.133-12.8 72.533 61.867 74.667 172.8 8.533 238.933L682.874 569.273c-21.333 21.333-46.933 34.133-72.533 42.667-34.133 8.533-70.4 6.4-102.4-6.4-19.2-8.533-38.4-19.2-55.467-36.267-8.533-8.533-14.933-17.067-21.333-27.733-8.533-14.933-27.733-17.067-38.4-4.267l-59.733 59.733c-8.533 8.533-8.533 21.333-2.133 32 8.533 12.8 19.2 23.467 29.867 34.133 14.933 14.933 34.133 29.867 51.2 40.533 29.867 19.2 64 32 98.133 38.4 66.133 12.8 138.667 2.133 198.4-29.867 23.467-12.8 46.933-29.867 66.133-49.067l162.133-162.133c119.467-117.333 115.2-309.333-6.4-422.4z" fill="#666666" p-id="5874"></path></svg>