<!--<svg t="1566047980214" class="icon" viewBox="0 0 1024 1024" version="1.1" xmlns="http://www.w3.org/2000/svg" p-id="8183" width="28" height="28"><path d="M858.5 763.6c-18.9-44.8-46.1-85-80.6-119.5-34.5-34.5-74.7-61.6-119.5-80.6-0.4-0.2-0.8-0.3-1.2-0.5C719.5 518 760 444.7 760 362c0-137-111-248-248-248S264 225 264 362c0 82.7 40.5 156 102.8 201.1-0.4 0.2-0.8 0.3-1.2 0.5-44.8 18.9-85 46-119.5 80.6-34.5 34.5-61.6 74.7-80.6 119.5C146.9 807.5 137 854 136 901.8c-0.1 4.5 3.5 8.2 8 8.2h60c4.4 0 7.9-3.5 8-7.8 2-77.2 33-149.5 87.8-204.3 56.7-56.7 132-87.9 212.2-87.9s155.5 31.2 212.2 87.9C779 752.7 810 825 812 902.2c0.1 4.4 3.6 7.8 8 7.8h60c4.5 0 8.1-3.7 8-8.2-1-47.8-10.9-94.3-29.5-138.2zM512 534c-45.9 0-89.1-17.9-121.6-50.4S340 407.9 340 362c0-45.9 17.9-89.1 50.4-121.6S466.1 190 512 190s89.1 17.9 121.6 50.4S684 316.1 684 362c0 45.9-17.9 89.1-50.4 121.6S557.9 534 512 534z" p-id="8184"></path></svg>-->
<svg t="1569936897198" class="icon" viewBox="0 0 1024 1024" version="1.1" xmlns="http://www.w3.org/2000/svg" p-id="8560" width="32" height="32"><path d="M632.9445481249999 563.0638296875c93.6399515625-45.19016625 158.557160625-140.798589375 158.557160625-251.56212093749997C791.50170875 157.38948312500003 666.112225625 32 511.97883406249997 32 357.88777437499994 32 232.5194571875 157.38948312500003 232.5194571875 311.50170875000003c0 110.7211996875 64.9172090625 206.37195468750002 158.53599468749997 251.56212093749997C216.09436625 615.2812259375 88.10142218750008 777.4578321875 88.10142218750008 969.1403375c0 12.6151471875 10.223349374999998 22.8596625 22.8596625 22.8596625h802.1201634375a22.8596625 22.8596625 0 0 0 22.8596625-22.8596625c-0.0211659375-191.682504375-128.03527687500002-353.85911156249995-302.99636250000003-406.0765078125z" p-id="8561"></path></svg>