<!--<svg t="1566043773453" class="icon" viewBox="0 0 1024 1024" version="1.1" xmlns="http://www.w3.org/2000/svg" p-id="8070" width="28" height="28"><path d="M408 442h480c4.4 0 8-3.6 8-8v-56c0-4.4-3.6-8-8-8H408c-4.4 0-8 3.6-8 8v56c0 4.4 3.6 8 8 8zM400 646c0 4.4 3.6 8 8 8h480c4.4 0 8-3.6 8-8v-56c0-4.4-3.6-8-8-8H408c-4.4 0-8 3.6-8 8v56zM904 160H120c-4.4 0-8 3.6-8 8v56c0 4.4 3.6 8 8 8h784c4.4 0 8-3.6 8-8v-56c0-4.4-3.6-8-8-8zM904 792H120c-4.4 0-8 3.6-8 8v56c0 4.4 3.6 8 8 8h784c4.4 0 8-3.6 8-8v-56c0-4.4-3.6-8-8-8zM142.4 642.1L298.7 519c4.5-3.5 4.5-10.3 0-13.9L142.4 381.9c-5.8-4.6-14.4-0.5-14.4 6.9v246.3c0 7.4 8.5 11.6 14.4 7z" p-id="8071"></path></svg>-->
<svg t="1569936393896" class="icon" viewBox="0 0 1024 1024" version="1.1" xmlns="http://www.w3.org/2000/svg" p-id="8820" width="32" height="32"><path d="M512 64C264.6 64 64 264.6 64 512s200.6 448 448 448 448-200.6 448-448S759.4 64 512 64z m176.5 585.7l-28.6 39c-2.6 3.6-7.6 4.3-11.2 1.7L483.3 569.8c-2.1-1.5-3.3-3.9-3.3-6.5V288c0-4.4 3.6-8 8-8h48.1c4.4 0 8 3.6 8 8v247.5l142.6 103.1c3.6 2.5 4.4 7.5 1.8 11.1z" p-id="8821"></path></svg>