<svg t="1569936770483" class="icon" viewBox="0 0 1024 1024" version="1.1" xmlns="http://www.w3.org/2000/svg" p-id="5873" width="32" height="32"><path d="M493.007 838.074c-23.674-6.4-38.511-10.105-44.8-12.8-8.533-2.133-19.2 0-25.6 6.4l-10.667 10.667c-61.867 61.867-162.133 68.267-226.133 12.8-72.533-61.867-74.667-172.8-8.533-238.933l162.133-162.133c21.333-21.333 46.933-34.133 72.533-42.667 34.133-8.533 70.4-6.4 102.4 6.4 19.2 8.533 38.4 19.2 55.467 36.267 8.533 8.533 14.933 17.067 21.333 27.733 8.533 14.933 27.733 17.067 38.4 4.267l59.733-59.733c8.533-8.533 8.533-21.333 2.133-32-8.533-12.8-19.2-23.467-29.867-34.133-14.933-14.933-32-29.867-51.2-40.533-29.867-19.2-64-32-100.267-38.4-66.133-12.8-138.667-2.133-198.4 29.867-23.467 12.8-46.933 29.867-66.133 49.067L89.806 515.943c-113.067 113.067-121.6 296.533-12.8 411.733 113.067 123.733 305.067 125.867 422.4 8.533l53.333-53.333c14.933-10.667 4.267-36.267-14.933-38.4l-44.8-6.4zM930.341 78.607c-117.333-108.8-300.8-100.267-411.733 12.8l-49.067 46.933c-14.933 14.933-4.267 40.533 14.933 42.667 29.867 2.133 59.733 8.533 89.6 17.067 8.533 2.133 19.2 0 25.6-6.4l10.667-10.667c61.867-61.867 162.133-68.267 226.133-12.8 72.533 61.867 74.667 172.8 8.533 238.933L682.874 569.273c-21.333 21.333-46.933 34.133-72.533 42.667-34.133 8.533-70.4 6.4-102.4-6.4-19.2-8.533-38.4-19.2-55.467-36.267-8.533-8.533-14.933-17.067-21.333-27.733-8.533-14.933-27.733-17.067-38.4-4.267l-59.733 59.733c-8.533 8.533-8.533 21.333-2.133 32 8.533 12.8 19.2 23.467 29.867 34.133 14.933 14.933 34.133 29.867 51.2 40.533 29.867 19.2 64 32 98.133 38.4 66.133 12.8 138.667 2.133 198.4-29.867 23.467-12.8 46.933-29.867 66.133-49.067l162.133-162.133c119.467-117.333 115.2-309.333-6.4-422.4z" fill="#666666" p-id="5874"></path></svg>