<svg height="22pt" viewBox="0 -40 512 512" width="22pt" xmlns="http://www.w3.org/2000/svg"><path d="m277.332031 352c-11.730469 0-21.332031-9.601562-21.332031-21.332031 0-3.203125.640625-6.1875 1.921875-8.960938l40.746094-87.039062-40.746094-87.042969c-1.28125-2.773438-1.921875-5.757812-1.921875-8.957031 0-11.734375 9.601562-21.335938 21.332031-21.335938 3.203125 0 5.976563.640625 8.746094 1.921875l213.335937 96c7.464844 3.199219 12.585938 10.667969 12.585938 19.414063 0 8.746093-5.121094 16.210937-12.585938 19.410156l-213.335937 96c-2.769531 1.28125-5.542969 1.921875-8.746094 1.921875zm0 0"/><path d="m0 234.667969c0-129.386719 105.28125-234.667969 234.667969-234.667969 71.144531 0 137.46875 31.660156 181.949219 86.890625 7.425781 9.195313 5.933593 22.613281-3.21875 29.996094-9.175782 7.378906-22.613282 5.929687-29.996094-3.242188-36.351563-45.101562-90.539063-70.976562-148.734375-70.976562-105.855469 0-192 86.121093-192 192 0 105.875 86.144531 192 192 192 58.195312 0 112.382812-25.878907 148.714843-70.976563 7.378907-9.195312 20.820313-10.625 29.992188-3.242187 9.152344 7.421875 10.644531 20.839843 3.222656 29.992187-44.460937 55.234375-110.785156 86.890625-181.929687 86.890625-129.386719 0-234.667969-105.277343-234.667969-234.664062zm0 0"/></svg>