<svg xmlns="http://www.w3.org/2000/svg" xmlns:xlink="http://www.w3.org/1999/xlink" version="1.1" id="Capa_1" x="0px" y="0px" viewBox="0 0 512 512" style="enable-background:new 0 0 512 512;" xml:space="preserve" width="24" height="24">
<g>
	<g id="_Mouse_pointer_1_">
		<g>
			<path style="fill:#537983;" d="M431.494,336.488l-330-331.977c-4.199-4.499-10.499-5.7-16.199-3.3s-9.3,7.8-9.3,13.801v481.977     c0,6,3.6,11.4,9.3,13.799c5.4,2.401,12.001,1.201,16.199-3.3l145.801-145.499h173.699c6,0,11.4-3.6,13.801-9.3     C437.194,346.989,435.994,340.689,431.494,336.488z"/>
		</g>
	</g>
	<path style="fill:#3E5959;" d="M247.295,361.989L101.494,507.489c-4.199,4.501-10.8,5.7-16.199,3.3   c-5.7-2.399-9.3-7.798-9.3-13.799V15.012c0-6,3.6-11.4,9.3-13.801L247.295,361.989z"/>
</g>
</svg>
